<svg width="159" height="40" viewBox="0 0 159 40" fill="none" xmlns="http://www.w3.org/2000/svg">
<g clip-path="url(#clip0)">
<path d="M125.916 32.3314H127.764V36.8641C127.764 38.9593 126.286 40 124.533 40C122.766 40 121.397 38.9593 121.397 36.8641V32.3314H123.245V36.8778C123.245 37.7816 123.684 38.302 124.56 38.302C125.437 38.302 125.902 37.7816 125.902 36.8778V32.3314H125.916ZM112.345 33.8103H114.358V39.9315H116.207V33.8103H118.22V32.3314H112.345V33.8103ZM150.62 34.3992C150.62 33.9199 150.962 33.7008 151.4 33.7008C151.893 33.7145 152.249 34.0021 152.277 34.495H154.276C154.194 33.0435 153.085 32.2218 151.428 32.2218C149.839 32.2218 148.661 33.0298 148.661 34.4677C148.634 37.1654 152.441 36.4122 152.441 37.809C152.441 38.2472 152.099 38.5211 151.551 38.5211C151.03 38.5211 150.661 38.2335 150.606 37.6583H148.634C148.689 39.1921 149.962 40.0137 151.606 40.0137C153.386 40.0137 154.372 38.9456 154.372 37.672C154.372 35.125 150.62 35.7275 150.62 34.3992ZM135.57 36.9189L137.323 39.9315H135.228L134.283 38.2198L133.639 37.0558H133.201V39.9315H131.352V32.3314H134.283H134.461C136.323 32.3314 137.254 33.3995 137.254 34.7278C137.268 35.6727 136.748 36.5765 135.57 36.9189ZM135.378 34.7963C135.378 34.2349 135.05 33.8651 134.365 33.8651H134.297H133.215V35.7549H134.297H134.365C135.05 35.7549 135.378 35.3988 135.378 34.7963ZM94.1733 39.9315H98.8292V38.4526H96.0219V36.7819H98.5005V35.3578H96.0219V33.824H98.8292V32.3314H94.1733V39.9315ZM107.265 37.0421L104.17 32.3314H102.321V39.9315H104.17V35.2482L107.265 39.9315H109.113V32.3314H107.265V37.0421ZM87.2578 38.0692L85.3817 32.3314H83.4098L86.1075 39.9315H88.4218L91.1195 32.3314H89.1613L87.2578 38.0692ZM140.705 39.9315H145.361V38.4526H142.554V36.7819H145.033V35.3578H142.554V33.824H145.361V32.3314H140.705V39.9315ZM158.275 25.9089L157.864 27.0729L157.453 25.9089H156.864V27.6892H157.261V26.3198L157.713 27.6892H158.014L158.48 26.3198V27.6892H158.877V25.9089H158.275ZM154.824 26.265H155.481V27.7028H155.878V26.265H156.535V25.9226H154.837V26.265H154.824ZM84.2862 14.0637H81.7529V13.1051C81.7529 11.544 82.3417 10.9552 84.0808 10.9552V8.59979C80.5204 8.59979 78.9045 9.95549 78.9045 13.1051V27.7028H81.7529V16.7614H84.2725V14.0637H84.2862ZM46.8333 17.7473C46.8333 16.8299 47.6276 16.2136 49.1339 16.2136C50.6676 16.2136 51.5851 17.0353 51.681 18.2129H54.5019C54.3513 15.4878 52.3246 13.8309 49.2298 13.8309C46.0117 13.8309 43.985 15.5837 43.985 17.761C43.985 22.7593 51.9001 21.2256 51.9001 23.8959C51.9001 24.8408 51.0373 25.5255 49.4078 25.5255C47.8467 25.5255 46.7785 24.608 46.6827 23.4988H43.7659C43.8891 25.9774 46.1897 27.9083 49.4625 27.9083C52.6806 27.9083 54.7347 26.1691 54.6799 23.8685C54.5841 18.9661 46.8333 20.4998 46.8333 17.7473ZM73.7967 16.0493V14.0637H70.9757V27.7028H73.7967V20.5272C73.7967 17.6378 75.0839 16.7614 77.1654 16.7614H77.8775V13.8446C75.9466 13.8446 74.5772 14.6799 73.7967 16.0493ZM65.8405 21.6638C65.8405 24.1561 64.4848 25.4433 62.4033 25.4433C60.3492 25.4433 58.9935 24.1561 58.9935 21.6638V14.0637H56.2V22.0746C56.2 25.8816 58.6238 27.8946 61.8145 27.8946C63.4167 27.8946 64.9504 27.2236 65.8542 26.0596V27.7028H68.6751V14.0637H65.8542V21.6638H65.8405ZM134.639 16.0493V14.0637H131.818V27.7028H134.639V20.5272C134.639 17.6378 135.926 16.7614 138.008 16.7614H138.72V13.8446C136.789 13.8446 135.419 14.6799 134.639 16.0493ZM145.991 27.9083C145.799 27.9219 145.594 27.9356 145.402 27.9356C141.814 27.9356 138.966 25.0325 138.966 20.8285C138.966 16.6244 141.814 13.8446 145.43 13.8446C145.621 13.8446 145.813 13.8583 146.005 13.872C147.607 14.0226 149.209 14.8168 150.14 15.9671V9.76378H152.989V27.7028H150.14V25.6488C149.346 26.7717 147.922 27.7302 145.991 27.9083ZM150.127 20.8696C150.127 17.9528 148.127 16.2958 145.991 16.2958C143.882 16.2958 141.856 17.8843 141.856 20.8285C141.856 23.7727 143.882 25.4844 145.991 25.4844C148.127 25.4707 150.127 23.8138 150.127 20.8696ZM99.8152 20.8285C99.8152 25.0325 96.9942 27.9356 93.4064 27.9356C93.201 27.9356 92.9956 27.9219 92.8039 27.9083C90.873 27.7439 89.4625 26.799 88.6546 25.7309V27.7165H85.8336V9.77747H88.6546V16.1178C89.4625 14.9949 90.9278 14.0637 92.8039 13.8993C92.9956 13.8857 93.201 13.872 93.4064 13.872C97.0216 13.8446 99.8152 16.6108 99.8152 20.8285ZM96.9531 20.8285C96.9531 17.8843 94.9264 16.3095 92.8039 16.2958H92.7902C90.6813 16.2958 88.6546 17.9528 88.6546 20.8696C88.6546 23.8138 90.6813 25.4707 92.7902 25.4707H92.8039C94.9264 25.4707 96.9531 23.759 96.9531 20.8285ZM100.719 20.8696C100.719 16.5971 103.786 13.8446 107.662 13.8446H107.675C111.565 13.8446 114.632 16.5971 114.632 20.8696C114.632 25.1147 111.523 27.8672 107.662 27.9219C107.621 27.9219 107.593 27.9219 107.552 27.9219C103.663 27.9219 100.719 25.1558 100.719 20.8696ZM103.595 20.8696C103.595 23.9644 105.43 25.4707 107.552 25.4707C107.593 25.4707 107.621 25.4707 107.662 25.4707C109.73 25.416 111.729 23.9096 111.729 20.8696C111.729 17.7884 109.743 16.3095 107.662 16.2958C107.648 16.2958 107.634 16.2958 107.621 16.2958C105.498 16.2958 103.595 17.7747 103.595 20.8696ZM126.655 14.0637H129.504V27.7028H126.655V25.6761C125.875 26.7306 124.464 27.7165 122.52 27.9083C122.314 27.9219 122.095 27.9356 121.876 27.9356C118.343 27.9356 115.495 25.0325 115.495 20.8285C115.495 16.6244 118.343 13.8446 121.931 13.8446C122.136 13.8446 122.328 13.8583 122.52 13.872C124.505 14.0363 125.888 15.0359 126.655 16.0493V14.0637ZM126.655 20.8696C126.655 17.9528 124.656 16.2958 122.52 16.2958C120.411 16.2958 118.384 17.8843 118.384 20.8285C118.384 23.7727 120.411 25.4844 122.52 25.4844C124.656 25.4707 126.655 23.8138 126.655 20.8696Z" fill="black"/>
<path fill-rule="evenodd" clip-rule="evenodd" d="M42.1499 8.8052L30.1541 20.8011C28.8394 22.1157 27.4153 22.7183 25.7172 22.7183C22.4581 22.7183 19.7877 20.0616 19.7877 16.7888C19.7877 13.5296 22.4444 10.8593 25.7172 10.8593C27.0455 10.8593 28.278 11.2975 29.2776 12.0507L32.3862 8.92845C29.5789 3.87539 24.3067 0.356043 18.2129 0.0273879C17.898 0.0136939 17.583 0 17.2544 0C7.64122 0.0136939 0 7.92879 0 17.2681C0 21.7597 1.87607 26.3608 5.02568 29.5104L15.5015 39.9863L18.2129 37.2749L41.9719 13.5022C43.3139 12.1739 43.1633 9.84594 42.1499 8.8052ZM18.1992 32.7422L15.4878 35.4536L7.54536 27.5111C4.7381 24.7039 3.19069 21.2119 3.19069 17.3091C3.20438 9.57207 9.51729 3.25916 17.2544 3.25916C17.5693 3.25916 17.898 3.27285 18.2129 3.28655C20.2396 3.42349 22.1568 3.99863 23.8548 4.90243C22.8689 4.66963 21.8555 4.53269 20.8011 4.53269C19.911 4.53269 19.0346 4.62855 18.1992 4.80657C12.4889 6.01164 8.18898 11.0921 8.18898 17.1448C8.18898 20.6642 9.51729 23.6357 12.037 26.1554L18.1856 32.304L18.4047 32.5231L18.1992 32.7422ZM20.6642 30.291L18.2129 27.8398L14.2828 23.9096C12.4204 22.0472 11.4071 19.7193 11.4071 17.1448C11.4071 12.8723 14.2828 9.24341 18.2129 8.10681C19.0346 7.87402 19.911 7.73708 20.8148 7.73708C21.5953 7.73708 22.3622 7.83293 23.088 8.01096C21.1024 8.61349 19.3906 9.87333 18.2129 11.5303C17.1585 13.0229 16.5423 14.8305 16.5423 16.7888C16.5423 18.747 17.1585 20.5546 18.2129 22.0472C19.7467 24.2246 22.2116 25.7172 25.0188 25.9363L20.6642 30.291Z" fill="#28C8DC"/>
</g>
<defs>
<clipPath id="clip0">
<rect width="158.877" height="40" fill="white"/>
</clipPath>
</defs>
</svg>
